# xmcd
#
# Track frame offsets:
#	150
#	16241
#	24905
#	39606
#	58278
#	71154
#	84422
#	97750
#	111992
#	123132
#
# Disc length: 1808 seconds
# Revision: 1
# Processed by: cddbd v1.5.2PL0 Copyright (c) Steve Scherf et al.
# Submitted via: dBpowerAMP V12.0
#
DISCID=79070e0a
DTITLE=Gene Brown Country - Breakin' Wild Horses
DYEAR=2005
DGENRE=Country
TTITLE0=Breakin' Wild Horses
TTITLE1=When It Comes To You
TTITLE2=Round The World
TTITLE3=Funky Rock And Roll
TTITLE4=Takin Life Easy
TTITLE5=Harvey's
TTITLE6=Lady From The Night
TTITLE7=The Kind Of Man
TTITLE8=You've Got What It Takes
TTITLE9=The Truest Kind Of Woman
EXTD=
EXTT0=
EXTT1=
EXTT2=
EXTT3=
EXTT4=
EXTT5=
EXTT6=
EXTT7=
EXTT8=
EXTT9=
PLAYORDER=
